#!OML:ASF H:\Dans Jumps\Project 1\Capture day 1\Session 1\subject.ASF
:FULLY-SPECIFIED
:DEGREES
545
root 0.0466358 17.4202 -7.19496 9.33713 -1.34213 -0.6575
lowerback 4.93867 0.0962713 -0.922067
upperback 5.72728 0.0726891 1.4187
thorax 3.13247 -0.0292933 1.97734
lowerneck -13.3267 0.416768 -1.66257
upperneck 33.4334 1.05826 0.0340804
head 13.4825 0.253373 0.465765
rclavicle -4.96962e-016 -5.36719e-015
rhumerus -25.5101 -10.1587 -81.3805
rradius 27.682
rwrist 27.3686
rhand -18.2835 -23.6154
rfingers 7.12502
rthumb 7.99674 -53.4441
lclavicle -4.96962e-016 -5.36719e-015
lhumerus -24.5229 -8.69655 90.8716
lradius 27.533
lwrist 17.6379
lhand -27.4938 -5.53187
lfingers 7.12502
lthumb -0.896984 24.446
rfemur -24.2286 -2.80557 18.9421
rtibia 33.7062
rfoot -17.3041 -1.95813
rtoes 4.31702
lfemur -22.6287 5.99126 -18.1295
ltibia 29.6323
lfoot -14.3022 5.86289
ltoes 0.536936
546
root 0.0468703 17.4201 -7.19649 9.32578 -1.33969 -0.662862
lowerback 4.94033 0.0998895 -0.913164
upperback 5.73098 0.0777576 1.41547
thorax 3.13517 -0.0264111 1.96892
lowerneck -13.3182 0.413927 -1.66406
upperneck 33.4395 1.05533 0.0318939
head 13.4833 0.251638 0.464719
rclavicle 2.78299e-015 8.54774e-015
rhumerus -25.5091 -10.1675 -81.368
rradius 27.6751
rwrist 27.3717
rhand -18.274 -23.6373
rfingers 7.12502
rthumb 8.0059 -53.4657
lclavicle 2.78299e-015 8.54774e-015
lhumerus -24.5238 -8.65102 90.841
lradius 27.4839
lwrist 17.6017
lhand -27.4313 -5.41611
lfingers 7.12502
lthumb -0.836634 24.562
rfemur -24.2191 -2.80329 18.9469
rtibia 33.702
rfoot -17.2981 -1.95981
rtoes 4.31875
lfemur -22.6234 5.99595 -18.1243
ltibia 29.633
lfoot -14.2993 5.85843
ltoes 0.526335
547
root 0.0471943 17.4202 -7.19796 9.31519 -1.33792 -0.670746
lowerback 4.94048 0.103494 -0.900883
upperback 5.73542 0.0828744 1.41279
thorax 3.13948 -0.023411 1.95916
lowerneck -13.3199 0.411952 -1.6593
upperneck 33.4527 1.05433 0.0235407
head 13.4896 0.250607 0.460514
rclavicle 2.48481e-015 -9.74045e-015
rhumerus -25.5066 -10.1832 -81.3546
rradius 27.6673
rwrist 27.3827
rhand -18.266 -23.66
rfingers 7.12502
rthumb 8.01359 -53.4881
lclavicle 2.48481e-015 -9.74045e-015
lhumerus -24.5241 -8.60095 90.8102
lradius 27.4296
lwrist 17.5615
lhand -27.394 -5.33974
lfingers 7.12502
lthumb -0.800646 24.6385
rfemur -24.2092 -2.80113 18.9542
rtibia 33.695
rfoot -17.2901 -1.96083
rtoes 4.31775
lfemur -22.6184 5.99906 -18.1166
ltibia 29.6336
lfoot -14.2959 5.85583
ltoes 0.518677
548
root 0.047593 17.4203 -7.19937 9.30681 -1.33676 -0.679389
lowerback 4.93802 0.106861 -0.888278
upperback 5.73916 0.0876741 1.41102
thorax 3.14454 -0.0205776 1.95017
lowerneck -13.3287 0.410717 -1.65151
upperneck 33.4728 1.05523 0.0109186
head 13.5004 0.250134 0.454443
rclavicle 3.08116e-015 -1.98785e-015
rhumerus -25.505 -10.1976 -81.34
rradius 27.6578
rwrist 27.3959
rhand -18.2606 -23.6827
rfingers 7.12502
rthumb 8.0188 -53.5105
lclavicle 3.08116e-015 -1.98785e-015
lhumerus -24.5259 -8.54896 90.7814
lradius 27.3714
lwrist 17.5245
lhand -27.3609 -5.26527
lfingers 7.12502
lthumb -0.768686 24.7131
rfemur -24.2003 -2.80142 18.9623
rtibia 33.686
rfoot -17.2819 -1.95761
rtoes 4.3318
lfemur -22.6148 6.00046 -18.1084
ltibia 29.6335
lfoot -14.2915 5.85585
ltoes 0.509007
549
root 0.048051 17.4205 -7.20076 9.29936 -1.33692 -0.687594
lowerback 4.93433 0.110961 -0.874611
upperback 5.7424 0.0935009 1.40823
thorax 3.14972 -0.0171664 1.93952
lowerneck -13.3461 0.409104 -1.63617
upperneck 33.502 1.0559 -0.00795531
head 13.5173 0.249571 0.444619
rclavicle 1.49089e-015 -1.31198e-014
rhumerus -25.5054 -10.2198 -81.3242
rradius 27.6485
rwrist 27.4158
rhand -18.2497 -23.7028
rfingers 7.12502
rthumb 8.02933 -53.5302
lclavicle 1.49089e-015 -1.31198e-014
lhumerus -24.5308 -8.49393 90.7526
lradius 27.3124
lwrist 17.4869
lhand -27.3471 -5.20571
lfingers 7.12502
lthumb -0.755338 24.7727
rfemur -24.1919 -2.80083 18.9694
rtibia 33.676
rfoot -17.2738 -1.95261
rtoes 4.36212
lfemur -22.6109 6.00037 -18.1007
ltibia 29.6325
lfoot -14.2854 5.85767
ltoes 0.504459
550
root 0.0485043 17.4208 -7.20211 9.29259 -1.33826 -0.695002
lowerback 4.93049 0.115651 -0.861226
upperback 5.74439 0.100125 1.40481
thorax 3.15364 -0.0133342 1.92834
lowerneck -13.3686 0.406594 -1.61494
upperneck 33.5387 1.05575 -0.0325469
head 13.5386 0.248549 0.431422
rclavicle 2.28602e-015 4.37326e-015
rhumerus -25.5086 -10.2467 -81.3069
rradius 27.6381
rwrist 27.4385
rhand -18.2353 -23.714
rfingers 7.12502
rthumb 8.04326 -53.541
lclavicle 2.28602e-015 4.37326e-015
lhumerus -24.5392 -8.43926 90.7253
lradius 27.2522
lwrist 17.4494
lhand -27.4007 -5.24984
lfingers 7.12502
lthumb -0.807082 24.7284
rfemur -24.1842 -2.80009 18.9755
rtibia 33.6659
rfoot -17.2649 -1.94773
rtoes 4.39053
lfemur -22.6066 6.00024 -18.0939
ltibia 29.6305
lfoot -14.2787 5.86031
ltoes 0.504364
551
root 0.0489832 17.4211 -7.20343 9.28621 -1.34271 -0.700086
lowerback 4.92654 0.121395 -0.849801
upperback 5.74592 0.108136 1.39989
thorax 3.1571 -0.00884261 1.91669
lowerneck -13.3896 0.403652 -1.59271
upperneck 33.576 1.05446 -0.0565901
head 13.5599 0.247232 0.418071
rclavicle 1.98785e-016 1.03368e-014
rhumerus -25.5117 -10.2772 -81.2897
rradius 27.6257
rwrist 27.4635
rhand -18.2198 -23.7181
rfingers 7.12502
rthumb 8.05819 -53.5444
lclavicle 1.98785e-016 1.03368e-014
lhumerus -24.5498 -8.38209 90.6974
lradius 27.1917
lwrist 17.4082
lhand -27.4564 -5.31667
lfingers 7.12502
lthumb -0.860888 24.6613
rfemur -24.1776 -2.79684 18.9786
rtibia 33.6563
rfoot -17.2564 -1.94203
rtoes 4.42783
lfemur -22.6019 5.99969 -18.0896
ltibia 29.6283
lfoot -14.2706 5.86503
ltoes 0.506947
